<svg preserveAspectRatio="none" width="100%" height="100%" overflow="visible" style="display: block;" viewBox="0 0 300.713 287.843" fill="none" xmlns="http://www.w3.org/2000/svg">
<g id="Bg">
<path id="Rectangle 1028" d="M75.2073 184.316C59.6412 170.833 51.8582 164.091 47.2766 156.351C39.4716 143.164 37.4889 127.33 41.8015 112.627C44.333 103.995 50.2135 95.5428 61.9744 78.6377C73.7354 61.7325 79.6159 53.2798 86.8283 47.9051C99.115 38.749 114.651 35.1024 129.728 37.8354C138.578 39.4397 147.606 44.3931 165.66 54.2998L216.999 82.4703C244.502 97.5616 258.254 105.107 265.681 115.841C273.633 127.335 276.938 141.413 274.93 155.244C273.054 168.162 264.096 181.038 246.181 206.79C228.265 232.543 219.307 245.419 207.847 251.669C195.577 258.36 181.228 260.157 167.687 256.698C155.04 253.466 143.184 243.196 119.471 222.657L75.2073 184.316Z" fill="url(#paint0_linear_47_3527)"/>
<g id="Rectangle 1029" opacity="0.5" filter="url(#filter0_f_47_3527)">
<path d="M101.318 167.723C83.1234 151.963 79.7492 125.017 93.4957 105.258C107.242 85.4984 133.681 79.2926 154.783 90.8719L185.129 107.523C211.567 122.03 219.6 156.252 202.378 181.007C185.156 205.762 150.276 210.13 127.481 190.386L101.318 167.723Z" fill="var(--fill-0, #0062FF)"/>
</g>
</g>
<defs>
<filter id="filter0_f_47_3527" x="2.38419e-06" y="-2.68221e-07" width="296.541" height="287.843" filterUnits="userSpaceOnUse" color-interpolation-filters="sRGB">
<feFlood flood-opacity="0" result="BackgroundImageFix"/>
<feBlend mode="normal" in="SourceGraphic" in2="BackgroundImageFix" result="shape"/>
<feGaussianBlur stdDeviation="42.5313" result="effect1_foregroundBlur_47_3527"/>
</filter>
<linearGradient id="paint0_linear_47_3527" x1="108.706" y1="11.4658" x2="89.1874" y2="265.699" gradientUnits="userSpaceOnUse">
<stop stop-color="#39AFFD"/>
<stop offset="1" stop-color="#477FFF"/>
</linearGradient>
</defs>
</svg>
