<svg preserveAspectRatio="none" width="100%" height="100%" overflow="visible" style="display: block;" viewBox="0 0 146.084 39.8235" fill="none" xmlns="http://www.w3.org/2000/svg">
<g id="Layer_1" clip-path="url(#clip0_52_5232)">
<path id="Vector" d="M142.449 38.3808C142.092 38.399 141.733 38.4111 141.37 38.4171C141.43 38.4191 141.491 38.4191 141.552 38.4191C141.854 38.4191 142.153 38.407 142.449 38.3808Z" fill="var(--fill-0, black)"/>
<path id="Vector_2" d="M31.829 38.6189C31.6433 38.7218 31.4536 38.8227 31.264 38.9216C31.4597 38.8348 31.6514 38.7359 31.829 38.6189Z" fill="var(--fill-0, black)"/>
<g id="Vector_3">
</g>
<path id="Vector_4" d="M31.829 38.6189C31.6433 38.7218 31.4536 38.8227 31.264 38.9216C31.4597 38.8348 31.6514 38.7359 31.829 38.6189Z" fill="var(--fill-0, black)"/>
<path id="Vector_5" d="M49.5696 30.0331V12.684H53.9401V15.9871C54.2287 14.7421 54.8179 13.7917 55.7077 13.1339C56.5976 12.4782 57.7982 12.1936 59.3116 12.2824V16.5198H58.678C57.3886 16.5198 56.297 16.9315 55.4091 17.7547C54.5193 18.578 54.0753 19.712 54.0753 21.1568V30.0311H49.5716L49.5696 30.0331Z" fill="var(--fill-0, black)"/>
<path id="Vector_6" d="M67.8853 30.467C66.3053 30.467 64.8666 30.0614 63.5651 29.2502C62.2636 28.4391 61.2305 27.3494 60.4617 25.9814C59.6929 24.6133 59.3116 23.0959 59.3116 21.4272C59.3116 20.1822 59.5335 19.0078 59.9795 17.9081C60.4234 16.8064 61.0348 15.8398 61.8137 15.0065C62.5925 14.1731 63.4985 13.5173 64.5337 13.0391C65.5668 12.5609 66.6847 12.3228 67.8873 12.3228C69.3986 12.3228 70.579 12.6073 71.4245 13.1743C72.27 13.7413 72.9258 14.4919 73.3919 15.4262V12.69H77.8613V30.0372H73.4907V27.2021C73.0246 28.1808 72.3608 28.9697 71.5052 29.571C70.6497 30.1724 69.441 30.471 67.8853 30.471V30.467ZM68.6177 26.397C69.6186 26.397 70.4802 26.169 71.2025 25.713C71.9249 25.257 72.4879 24.6516 72.8874 23.8949C73.2869 23.1383 73.4887 22.315 73.4887 21.4251C73.4887 20.5353 73.289 19.6797 72.8874 18.923C72.4879 18.1664 71.9249 17.555 71.2025 17.0889C70.4802 16.6227 69.6186 16.3887 68.6177 16.3887C67.6169 16.3887 66.8219 16.6167 66.0995 17.0727C65.3771 17.5287 64.8141 18.1361 64.4146 18.8908C64.0151 19.6474 63.8133 20.4808 63.8133 21.3928C63.8133 22.3049 64.0131 23.0777 64.4146 23.8445C64.8141 24.6113 65.3771 25.2287 66.0995 25.6968C66.8219 26.163 67.6613 26.397 68.6177 26.397Z" fill="var(--fill-0, black)"/>
<path id="Vector_7" d="M81.7961 30.0331V16.5219H79.3606V12.686H81.7961V11.5177C81.7961 9.76016 82.3187 8.34769 83.3639 7.28027C84.4091 6.21285 85.8095 5.67813 87.567 5.67813H89.4355V9.51399H88.2672C86.9556 9.51399 86.2998 10.2041 86.2998 11.5822V12.684H89.8371V16.5198H86.2998V30.0311H81.7961V30.0331Z" fill="var(--fill-0, black)"/>
<path id="Vector_8" d="M98.8103 30.467C97.0305 30.467 95.4627 30.0553 94.1067 29.2321C92.7508 28.4088 91.6995 27.3131 90.9549 25.945C90.2103 24.577 89.837 23.0596 89.837 21.3908C89.837 19.7221 90.2265 18.1946 91.0054 16.8043C91.7842 15.4141 92.8456 14.3083 94.1915 13.485C95.5374 12.6618 97.077 12.2501 98.8123 12.2501C100.548 12.2501 102.075 12.6618 103.399 13.485C104.722 14.3083 105.756 15.4141 106.502 16.8043C107.247 18.1946 107.62 19.7241 107.62 21.3908C107.62 21.635 107.608 21.8913 107.586 22.1576C107.564 22.424 107.529 22.7024 107.485 22.991H94.5083C94.7524 24.014 95.2468 24.8473 95.9934 25.493C96.738 26.1387 97.6783 26.4596 98.8123 26.4596C99.7909 26.4596 100.64 26.2376 101.365 25.7917C102.087 25.3478 102.65 24.7908 103.05 24.123L106.553 26.7582C105.863 27.8478 104.829 28.7377 103.449 29.4278C102.069 30.1179 100.523 30.4609 98.8123 30.4609L98.8103 30.467ZM98.7437 16.1203C97.6762 16.1203 96.7642 16.4432 96.0075 17.0868C95.2508 17.7325 94.7504 18.578 94.5063 19.6232H103.08C102.836 18.6668 102.329 17.8435 101.563 17.1554C100.796 16.4654 99.8555 16.1203 98.7437 16.1203Z" fill="var(--fill-0, black)"/>
<path id="Vector_9" d="M117.659 30.467C115.879 30.467 114.311 30.0553 112.955 29.2321C111.599 28.4088 110.548 27.3131 109.803 25.945C109.059 24.577 108.685 23.0596 108.685 21.3908C108.685 19.7221 109.075 18.1946 109.854 16.8043C110.633 15.4141 111.694 14.3083 113.04 13.485C114.386 12.6618 115.925 12.2501 117.661 12.2501C119.396 12.2501 120.923 12.6618 122.247 13.485C123.571 14.3083 124.604 15.4141 125.351 16.8043C126.095 18.1946 126.468 19.7241 126.468 21.3908C126.468 21.635 126.456 21.8913 126.434 22.1576C126.412 22.424 126.378 22.7024 126.333 22.991H113.355C113.599 24.014 114.093 24.8473 114.84 25.493C115.584 26.1387 116.525 26.4596 117.659 26.4596C118.637 26.4596 119.489 26.2376 120.211 25.7917C120.934 25.3478 121.496 24.7908 121.896 24.123L125.399 26.7582C124.709 27.8478 123.676 28.7377 122.296 29.4278C120.915 30.1179 119.37 30.4609 117.659 30.4609V30.467ZM117.592 16.1203C116.525 16.1203 115.613 16.4432 114.856 17.0868C114.099 17.7325 113.599 18.578 113.355 19.6232H121.928C121.684 18.6668 121.178 17.8435 120.411 17.1554C119.644 16.4654 118.704 16.1203 117.592 16.1203Z" fill="var(--fill-0, black)"/>
<path id="Vector_10" fill-rule="evenodd" clip-rule="evenodd" d="M141.58 36.706H146.084L146.088 12.69H141.65V15.4928C141.182 14.5363 140.52 13.7696 139.665 13.1904C138.807 12.6113 137.625 12.3228 136.112 12.3228C134.909 12.3228 133.791 12.5609 132.758 13.0391C131.723 13.5173 130.817 14.1731 130.038 15.0065C129.259 15.8398 128.648 16.8064 128.204 17.9081C127.758 19.0078 127.536 20.1822 127.536 21.4272C127.536 23.0959 127.917 24.6133 128.686 25.9814C129.455 27.3494 130.488 28.4391 131.789 29.2502C133.091 30.0614 134.53 30.467 136.11 30.467C137.599 30.467 138.767 30.1945 139.612 29.6497C140.456 29.1049 141.114 28.3765 141.58 27.4644V36.706ZM136.842 26.397C137.843 26.397 138.704 26.169 139.427 25.713C140.149 25.257 140.712 24.6516 141.112 23.8949C141.511 23.1383 141.713 22.315 141.713 21.4251C141.713 20.5353 141.513 19.6797 141.112 18.923C140.712 18.1664 140.149 17.555 139.427 17.0889C138.704 16.6227 137.843 16.3887 136.842 16.3887C135.841 16.3887 135.046 16.6167 134.324 17.0727C133.601 17.5287 133.038 18.1361 132.639 18.8908C132.239 19.6474 132.038 20.4808 132.038 21.3928C132.038 22.3049 132.237 23.0777 132.639 23.8445C133.04 24.6113 133.601 25.2287 134.324 25.6968C135.046 26.163 135.886 26.397 136.842 26.397Z" fill="var(--fill-0, black)"/>
<path id="Vector_11" d="M29.5529 37.3376C29.3632 37.4425 29.1715 37.5454 28.9778 37.6443C29.1776 37.5576 29.3713 37.4567 29.5529 37.3376Z" fill="var(--fill-0, black)"/>
<g id="Group 1000004694">
<path id="Vector_12" d="M20.2084 0C26.3546 0.155372 31.2922 5.18981 31.2922 11.3744C31.2922 19.0898 26.1973 22.7508 19.9138 22.7508C26.1973 22.7508 31.2922 27.8458 31.2922 34.1293V34.1959C31.2761 35.5155 30.588 36.6717 29.5529 37.3376C29.3632 37.4425 29.1715 37.5454 28.9778 37.6443C26.2598 39.0366 23.1786 39.8235 19.9138 39.8235C15.7833 39.8235 11.9475 38.5665 8.7674 36.4114C3.47669 32.8318 0 26.7764 0 19.9098C0 9.00953 8.75731 0.155372 19.6192 0" fill="var(--fill-0, white)"/>
<path id="Vector_13" d="M20.2082 0C31.0701 0.155372 39.8274 9.00953 39.8274 19.9098C39.8274 26.7764 36.3507 32.8318 31.062 36.4094C30.5737 36.7423 30.0712 37.0511 29.5527 37.3376C30.5878 36.6717 31.2759 35.5155 31.292 34.1959C31.292 34.1959 31.292 48.3488 31.292 34.1293C31.292 25.04 6.43413 22.7954 0.181578 22.3682C6.46505 22.3682 31.062 27.2383 31.292 11.3744C31.292 5.09094 26.3544 0.155372 20.2082 0Z" fill="url(#paint0_linear_52_5232)"/>
</g>
<path id="Vector_14" d="M29.5529 37.3376C29.3632 37.4425 29.1715 37.5454 28.9778 37.6443C29.1776 37.5576 29.3713 37.4567 29.5529 37.3376Z" fill="var(--fill-0, black)"/>
</g>
<defs>
<linearGradient id="paint0_linear_52_5232" x1="23.5597" y1="18.6688" x2="51.3954" y2="18.6688" gradientUnits="userSpaceOnUse">
<stop stop-color="#4A3AFF"/>
<stop offset="0.96" stop-color="white"/>
</linearGradient>
<clipPath id="clip0_52_5232">
<rect width="146.084" height="39.8235" fill="white"/>
</clipPath>
</defs>
</svg>
