<svg width="724" height="198" viewBox="0 0 724 198" fill="none" xmlns="http://www.w3.org/2000/svg">
<g clip-path="url(#clip0_10_281)">
<path d="M705.96 190.21C704.19 190.3 702.41 190.36 700.61 190.39C700.91 190.4 701.21 190.4 701.51 190.4C703.01 190.4 704.49 190.34 705.96 190.21Z" fill="white"/>
<path d="M157.74 191.39C156.82 191.9 155.88 192.4 154.94 192.89C155.91 192.46 156.86 191.97 157.74 191.39Z" fill="black"/>
<path d="M157.74 191.39C156.82 191.9 155.88 192.4 154.94 192.89C155.91 192.46 156.86 191.97 157.74 191.39Z" fill="black"/>
<path d="M245.66 148.84V62.86H267.32V79.23C268.75 73.06 271.67 68.35 276.08 65.09C280.49 61.84 286.44 60.43 293.94 60.87V81.87H290.8C284.41 81.87 279 83.91 274.6 87.99C270.19 92.07 267.99 97.69 267.99 104.85V148.83H245.67L245.66 148.84Z" fill="white"/>
<path d="M336.43 150.99C328.6 150.99 321.47 148.98 315.02 144.96C308.57 140.94 303.45 135.54 299.64 128.76C295.83 121.98 293.94 114.46 293.94 106.19C293.94 100.02 295.04 94.1999 297.25 88.7499C299.45 83.2899 302.48 78.5 306.34 74.3699C310.2 70.2399 314.69 66.9899 319.82 64.6199C324.94 62.2499 330.48 61.0699 336.44 61.0699C343.93 61.0699 349.78 62.4799 353.97 65.2899C358.16 68.0999 361.41 71.8199 363.72 76.4499V62.8899H385.87V148.86H364.21V134.81C361.9 139.66 358.61 143.57 354.37 146.55C350.13 149.53 344.14 151.01 336.43 151.01V150.99ZM340.06 130.82C345.02 130.82 349.29 129.69 352.87 127.43C356.45 125.17 359.24 122.17 361.22 118.42C363.2 114.67 364.2 110.59 364.2 106.18C364.2 101.77 363.21 97.5299 361.22 93.7799C359.24 90.0299 356.45 86.9999 352.87 84.6899C349.29 82.3799 345.02 81.2199 340.06 81.2199C335.1 81.2199 331.16 82.3499 327.58 84.6099C324 86.8699 321.21 89.8799 319.23 93.6199C317.25 97.3699 316.25 101.5 316.25 106.02C316.25 110.54 317.24 114.37 319.23 118.17C321.21 121.97 324 125.03 327.58 127.35C331.16 129.66 335.32 130.82 340.06 130.82Z" fill="white"/>
<path d="M405.37 148.84V81.88H393.3V62.87H405.37V57.08C405.37 48.37 407.96 41.37 413.14 36.08C418.32 30.79 425.26 28.14 433.97 28.14H443.23V47.15H437.44C430.94 47.15 427.69 50.57 427.69 57.4V62.86H445.22V81.87H427.69V148.83H405.37V148.84Z" fill="white"/>
<path d="M489.69 150.99C480.87 150.99 473.1 148.95 466.38 144.87C459.66 140.79 454.45 135.36 450.76 128.58C447.07 121.8 445.22 114.28 445.22 106.01C445.22 97.74 447.15 90.17 451.01 83.28C454.87 76.39 460.13 70.91 466.8 66.83C473.47 62.75 481.1 60.71 489.7 60.71C498.3 60.71 505.87 62.75 512.43 66.83C518.99 70.91 524.11 76.39 527.81 83.28C531.5 90.17 533.35 97.75 533.35 106.01C533.35 107.22 533.29 108.49 533.18 109.81C533.07 111.13 532.9 112.51 532.68 113.94H468.37C469.58 119.01 472.03 123.14 475.73 126.34C479.42 129.54 484.08 131.13 489.7 131.13C494.55 131.13 498.76 130.03 502.35 127.82C505.93 125.62 508.72 122.86 510.7 119.55L528.06 132.61C524.64 138.01 519.52 142.42 512.68 145.84C505.84 149.26 498.18 150.96 489.7 150.96L489.69 150.99ZM489.36 79.89C484.07 79.89 479.55 81.49 475.8 84.68C472.05 87.88 469.57 92.07 468.36 97.25H510.85C509.64 92.51 507.13 88.43 503.33 85.02C499.53 81.6 494.87 79.89 489.36 79.89Z" fill="white"/>
<path d="M583.1 150.99C574.28 150.99 566.51 148.95 559.79 144.87C553.07 140.79 547.86 135.36 544.17 128.58C540.48 121.8 538.63 114.28 538.63 106.01C538.63 97.74 540.56 90.17 544.42 83.28C548.28 76.39 553.54 70.91 560.21 66.83C566.88 62.75 574.51 60.71 583.11 60.71C591.71 60.71 599.28 62.75 605.84 66.83C612.4 70.91 617.52 76.39 621.22 83.28C624.91 90.17 626.76 97.75 626.76 106.01C626.76 107.22 626.7 108.49 626.59 109.81C626.48 111.13 626.31 112.51 626.09 113.94H561.77C562.98 119.01 565.43 123.14 569.13 126.34C572.82 129.54 577.48 131.13 583.1 131.13C587.95 131.13 592.17 130.03 595.75 127.82C599.33 125.62 602.12 122.86 604.1 119.55L621.46 132.61C618.04 138.01 612.92 142.42 606.08 145.84C599.24 149.26 591.58 150.96 583.1 150.96V150.99ZM582.77 79.89C577.48 79.89 572.96 81.49 569.21 84.68C565.46 87.88 562.98 92.07 561.77 97.25H604.26C603.05 92.51 600.54 88.43 596.74 85.02C592.94 81.6 588.28 79.89 582.77 79.89Z" fill="white"/>
<path fill-rule="evenodd" clip-rule="evenodd" d="M701.65 181.91H723.97L723.99 62.8899H702V76.7799C699.68 72.0399 696.4 68.24 692.16 65.3699C687.91 62.5 682.05 61.0699 674.55 61.0699C668.59 61.0699 663.05 62.25 657.93 64.6199C652.8 66.99 648.31 70.24 644.45 74.3699C640.59 78.4999 637.56 83.2899 635.36 88.7499C633.15 94.1999 632.05 100.02 632.05 106.19C632.05 114.46 633.94 121.98 637.75 128.76C641.56 135.54 646.68 140.94 653.13 144.96C659.58 148.98 666.71 150.99 674.54 150.99C681.92 150.99 687.71 149.64 691.9 146.94C696.08 144.24 699.34 140.63 701.65 136.11V181.91ZM678.17 130.82C683.13 130.82 687.4 129.69 690.98 127.43C694.56 125.17 697.35 122.17 699.33 118.42C701.31 114.67 702.31 110.59 702.31 106.18C702.31 101.77 701.32 97.5299 699.33 93.7799C697.35 90.0299 694.56 86.9999 690.98 84.6899C687.4 82.38 683.13 81.2199 678.17 81.2199C673.21 81.2199 669.27 82.3499 665.69 84.6099C662.11 86.8699 659.32 89.88 657.34 93.6199C655.36 97.3699 654.36 101.5 654.36 106.02C654.36 110.54 655.35 114.37 657.34 118.17C659.33 121.97 662.11 125.03 665.69 127.35C669.27 129.66 673.43 130.82 678.17 130.82Z" fill="white"/>
<path d="M146.46 185.04C145.52 185.56 144.57 186.07 143.61 186.56C144.6 186.13 145.56 185.63 146.46 185.04Z" fill="black"/>
<path d="M100.15 0C130.61 0.77 155.08 25.72 155.08 56.37C155.08 87.02 129.83 112.75 98.69 112.75C129.83 112.75 155.08 138 155.08 169.14V169.47C155 176.01 151.59 181.74 146.46 185.04C145.52 185.56 144.57 186.07 143.61 186.56C130.14 193.46 114.87 197.36 98.69 197.36C78.22 197.36 59.21 191.13 43.45 180.45C17.23 162.71 0 132.7 0 98.67C0 44.65 43.4 0.77 97.23 0" fill="#222031"/>
<path d="M100.15 0C153.98 0.77 197.38 44.65 197.38 98.67C197.38 132.7 180.15 162.71 153.94 180.44C151.52 182.09 149.03 183.62 146.46 185.04C151.59 181.74 155 176.01 155.08 169.47V169.14C155.08 138 129.83 112.75 98.6904 112.75C129.83 112.75 155.08 87.51 155.08 56.37C155.08 25.23 130.61 0.77 100.15 0Z" fill="url(#paint0_linear_10_281)"/>
<path d="M146.46 185.04C145.52 185.56 144.57 186.07 143.61 186.56C144.6 186.13 145.56 185.63 146.46 185.04Z" fill="black"/>
</g>
<defs>
<linearGradient id="paint0_linear_10_281" x1="116.76" y1="92.52" x2="254.71" y2="92.52" gradientUnits="userSpaceOnUse">
<stop stop-color="#4A3AFF"/>
<stop offset="0.96" stop-color="white"/>
</linearGradient>
<clipPath id="clip0_10_281">
<rect width="723.97" height="197.36" fill="white"/>
</clipPath>
</defs>
</svg>
