<svg width="40" height="40" viewBox="0 0 40 40" fill="none" xmlns="http://www.w3.org/2000/svg">
<path d="M20.2084 0C26.3546 0.155372 31.2922 5.18981 31.2922 11.3744C31.2922 19.0898 26.1973 22.7508 19.9138 22.7508C26.1973 22.7508 31.2922 27.8458 31.2922 34.1293V34.1959C31.2761 35.5155 30.588 36.6717 29.5529 37.3376C29.3632 37.4425 29.1715 37.5454 28.9778 37.6443C26.2598 39.0366 23.1786 39.8235 19.9138 39.8235C15.7833 39.8235 11.9475 38.5665 8.7674 36.4114C3.47669 32.8318 0 26.7764 0 19.9098C0 9.00953 8.75731 0.155372 19.6192 0" fill="white"/>
<path d="M20.2082 0C31.0701 0.155372 39.8274 9.00953 39.8274 19.9098C39.8274 26.7764 36.3507 32.8318 31.0621 36.4094C30.5737 36.7423 30.0713 37.0511 29.5527 37.3376C30.5879 36.6717 31.2759 35.5155 31.2921 34.1959C31.2921 34.1959 31.2921 48.3488 31.2921 34.1293C31.2921 25.04 6.43419 22.7954 0.181641 22.3682C6.46511 22.3682 31.0621 27.2383 31.2921 11.3744C31.2921 5.09094 26.3545 0.155372 20.2082 0Z" fill="url(#paint0_linear_46_683)"/>
<defs>
<linearGradient id="paint0_linear_46_683" x1="23.5597" y1="18.6688" x2="51.3955" y2="18.6688" gradientUnits="userSpaceOnUse">
<stop stop-color="#4A3AFF"/>
<stop offset="0.96" stop-color="white"/>
</linearGradient>
</defs>
</svg>
