<svg preserveAspectRatio="none" width="100%" height="100%" overflow="visible" style="display: block;" viewBox="0 0 133.533 164.486" fill="none" xmlns="http://www.w3.org/2000/svg">
<g id="Bg">
<path id="Fill 1" d="M119.357 88.9279C114.062 82.7449 111.656 77.3867 111.656 68.2837V65.1885C111.656 53.3262 108.926 45.6831 102.99 38.0401C93.8412 26.1704 78.4397 19.0165 63.3623 19.0165H62.7212C47.9607 19.0165 33.0418 25.8419 23.7346 37.2298C17.4746 45.0261 14.4274 52.9977 14.4274 65.1885V68.2837C14.4274 77.3867 12.1799 82.7449 6.72666 88.9279C2.71419 93.4831 1.43193 99.3376 1.43193 105.674C1.43193 112.018 3.5138 118.025 7.69196 122.909C13.1452 128.764 20.8459 132.501 28.7124 133.151C40.1015 134.45 51.4906 134.939 63.0453 134.939C74.5929 134.939 85.982 134.122 97.3782 133.151C105.238 132.501 112.938 128.764 118.391 122.909C122.562 118.025 124.652 112.018 124.652 105.674C124.652 99.3376 123.369 93.4831 119.357 88.9279" fill="url(#paint0_linear_23_544)"/>
<path id="Fill 4" d="M77.6006 144.396C73.9771 143.622 51.8977 143.622 48.2742 144.396C45.1766 145.112 41.8269 146.776 41.8269 150.426C42.007 153.908 44.0457 156.981 46.8695 158.93L46.8623 158.938C50.5146 161.785 54.8008 163.595 59.2887 164.245C61.6804 164.573 64.1152 164.559 66.5933 164.245C71.074 163.595 75.3602 161.785 79.0125 158.938L79.0053 158.93C81.8292 156.981 83.8678 153.908 84.0479 150.426C84.0479 146.776 80.6982 145.112 77.6006 144.396" fill="url(#paint1_linear_23_544)"/>
<g id="Fill 5" opacity="0.5" filter="url(#filter0_f_23_544)">
<path d="M92.939 84.3865C90.4783 80.2958 89.36 76.7508 89.36 70.7283V68.6805C89.36 60.8324 88.0912 55.7758 85.3325 50.7192C81.0806 42.8662 73.9227 38.1332 66.9154 38.1332H66.6175C59.7575 38.1332 52.8239 42.6489 48.4984 50.1831C45.589 55.3411 44.1728 60.6151 44.1728 68.6805V70.7283C44.1728 76.7508 43.1283 80.2958 40.5939 84.3865C38.7291 87.4002 38.1332 91.2735 38.1332 95.4657C38.1332 99.6626 39.1007 103.637 41.0425 106.868C43.5769 110.742 47.1559 113.215 50.8118 113.644C56.1049 114.504 61.398 114.828 66.7681 114.828C72.1349 114.828 77.428 114.287 82.7244 113.644C86.377 113.215 89.956 110.742 92.4904 106.868C94.4288 103.637 95.3997 99.6626 95.3997 95.4657C95.3997 91.2735 94.8038 87.4002 92.939 84.3865Z" fill="var(--fill-0, #0062FF)"/>
</g>
</g>
<defs>
<filter id="filter0_f_23_544" x="0" y="0" width="133.533" height="152.961" filterUnits="userSpaceOnUse" color-interpolation-filters="sRGB">
<feFlood flood-opacity="0" result="BackgroundImageFix"/>
<feBlend mode="normal" in="SourceGraphic" in2="BackgroundImageFix" result="shape"/>
<feGaussianBlur stdDeviation="19.0666" result="effect1_foregroundBlur_23_544"/>
</filter>
<linearGradient id="paint0_linear_23_544" x1="125.154" y1="19.0165" x2="-3.46487" y2="130.056" gradientUnits="userSpaceOnUse">
<stop stop-color="#39AFFD"/>
<stop offset="1" stop-color="#477FFF"/>
</linearGradient>
<linearGradient id="paint1_linear_23_544" x1="84.2202" y1="143.816" x2="63.7216" y2="177.824" gradientUnits="userSpaceOnUse">
<stop stop-color="#39AFFD"/>
<stop offset="1" stop-color="#477FFF"/>
</linearGradient>
</defs>
</svg>
