<svg width="58" height="58" viewBox="0 0 58 58" fill="none" xmlns="http://www.w3.org/2000/svg">
<g filter="url(#filter0_iii_54_3686)">
<g clip-path="url(#clip0_54_3686)">
<rect width="57.8409" height="57.8409" rx="13.1046" fill="url(#paint0_linear_54_3686)"/>
<rect width="57.8409" height="57.8409" rx="13.1046" fill="url(#paint1_radial_54_3686)" fill-opacity="0.04"/>
<mask id="mask0_54_3686" style="mask-type:alpha" maskUnits="userSpaceOnUse" x="-74" y="-74" width="327" height="204">
<rect x="-73.2051" y="-73.6572" width="325.355" height="203.347" fill="url(#paint2_radial_54_3686)"/>
</mask>
<g mask="url(#mask0_54_3686)">
<circle cx="26.2777" cy="49.1249" r="0.225941" fill="white" fill-opacity="0.15"/>
<circle cx="41.0189" cy="2.65416" r="0.225941" fill="white" fill-opacity="0.1"/>
<circle cx="30.2508" cy="30.2035" r="0.225941" fill="white" fill-opacity="0.3"/>
<circle cx="33.9107" cy="8.05668" r="0.338912" fill="white" fill-opacity="0.3"/>
<circle cx="18.9444" cy="3.93608" r="0.338912" fill="white" fill-opacity="0.3"/>
<circle cx="20.7193" cy="6.78325" r="0.338912" fill="white" fill-opacity="0.15"/>
<circle cx="28.3804" cy="22.5533" r="0.338912" fill="white" fill-opacity="0.1"/>
<circle cx="34.8218" cy="27.0415" r="0.338912" fill="white" fill-opacity="0.3"/>
<circle cx="52.6628" cy="39.3469" r="0.112971" fill="white" fill-opacity="0.1"/>
<circle cx="4.25262" cy="47.2316" r="0.112971" fill="white" fill-opacity="0.1"/>
<circle cx="56.5549" cy="12.8566" r="0.112971" fill="white" fill-opacity="0.8"/>
<circle cx="12.1843" cy="19.1642" r="0.112971" fill="white" fill-opacity="0.3"/>
<circle cx="19.6926" cy="2.33709" r="0.112971" fill="white" fill-opacity="0.1"/>
<circle cx="19.818" cy="14.0036" r="0.112971" fill="white" fill-opacity="0.1"/>
<circle cx="2.9411" cy="48.6769" r="0.112971" fill="white" fill-opacity="0.3"/>
<circle cx="0.596369" cy="21.8679" r="0.112971" fill="white" fill-opacity="0.7"/>
<circle cx="15.1896" cy="43.7326" r="0.112971" fill="white" fill-opacity="0.1"/>
<circle cx="26.818" cy="9.81219" r="0.112971" fill="white" fill-opacity="0.3"/>
<circle cx="0.846857" cy="8.60272" r="0.112971" fill="white" fill-opacity="0.15"/>
<circle cx="47.2253" cy="52.3986" r="0.112971" fill="white" fill-opacity="0.3"/>
<circle cx="0.854181" cy="24.0817" r="0.112971" fill="white" fill-opacity="0.1"/>
<circle cx="5.94695" cy="31.2023" r="0.112971" fill="white" fill-opacity="0.1"/>
<circle cx="27.4557" cy="38.2707" r="0.112971" fill="white" fill-opacity="0.1"/>
<path d="M36.0565 38.9116L36.1044 39.0896L36.2824 39.1376L36.1044 39.1855L36.0565 39.3635L36.0086 39.1855L35.8306 39.1376L36.0086 39.0896L36.0565 38.9116Z" fill="white" fill-opacity="0.1"/>
<path d="M0.552113 4.86182L0.600042 5.03983L0.778054 5.08776L0.600042 5.13569L0.552113 5.3137L0.504184 5.13569L0.326172 5.08776L0.504184 5.03983L0.552113 4.86182Z" fill="white" fill-opacity="0.15"/>
<path d="M19.8446 27.0718L19.8925 27.2498L20.0705 27.2977L19.8925 27.3456L19.8446 27.5237L19.7967 27.3456L19.6187 27.2977L19.7967 27.2498L19.8446 27.0718Z" fill="white" fill-opacity="0.3"/>
<path d="M8.20983 21.021L8.25776 21.199L8.43577 21.2469L8.25776 21.2949L8.20983 21.4729L8.1619 21.2949L7.98389 21.2469L8.1619 21.199L8.20983 21.021Z" fill="white" fill-opacity="0.1"/>
</g>
<g style="mix-blend-mode:overlay">
<path d="M50.9017 2.19586C42.0373 -4.66124 28.9073 -7.8074 19.0436 12.185C17.0715 16.1822 15.2573 20.0372 13.5221 23.7242C5.09777 41.6252 -1.46355 55.5673 -15.1819 62.5952C-24.2324 61.4853 -32.5344 59.7533 -39.7339 57.532C-44.9976 46.0454 -45.9559 33.0598 -42.613 21.0046C-41.3592 25.5222 -37.9743 29.1334 -30.4481 28.0786C-25.2215 27.346 -20.2639 20.9618 -14.2483 13.2148C-5.37218 1.78431 5.80753 -12.6128 23.5541 -16.1986C31.9997 -13.8078 39.9645 -9.29238 46.606 -2.65084C48.1533 -1.10354 49.5852 0.51557 50.9017 2.19586Z" fill="url(#paint3_linear_54_3686)" fill-opacity="0.5"/>
</g>
<g style="mix-blend-mode:overlay">
<path d="M61.5315 54.0023C52.3155 56.3595 41.8693 58.0835 30.632 59.0085C37.5128 51.4941 42.9054 41.5463 50.2152 27.8919C57.2689 14.7156 65.5193 12.0839 72.586 13.729C72.9163 15.3663 73.1803 17.0143 73.3781 18.6686C67.4318 19.2059 63.1571 25.1698 62.7174 40.3941C62.5794 45.1716 62.1679 49.707 61.5315 54.0023Z" fill="url(#paint4_linear_54_3686)"/>
</g>
<g clip-path="url(#clip1_54_3686)">
<path d="M60.6075 -12.5469C50.2566 -20.5538 34.9248 -24.2276 23.4071 -0.882641C21.1043 3.78478 18.9859 8.28624 16.9598 12.5916C7.12271 33.4943 -0.538876 49.7744 -16.5577 57.9808C-27.1259 56.6849 -36.82 54.6624 -45.2268 52.0686C-51.3732 38.6558 -52.4922 23.4926 -48.5887 9.41593C-47.1246 14.691 -43.1722 18.9078 -34.3839 17.6761C-28.2808 16.8207 -22.4919 9.36587 -15.4675 0.31988C-5.10295 -13.0274 7.95149 -29.8388 28.674 -34.0259C38.5358 -31.2342 47.8362 -25.9616 55.5915 -18.2063C57.3982 -16.3996 59.0702 -14.5089 60.6075 -12.5469Z" stroke="url(#paint5_linear_54_3686)" stroke-opacity="0.05" stroke-width="0.451882"/>
<path d="M60.6075 -12.5469C50.2566 -20.5538 34.9248 -24.2276 23.4071 -0.882641C21.1043 3.78478 18.9859 8.28624 16.9598 12.5916C7.12271 33.4943 -0.538876 49.7744 -16.5577 57.9808C-27.1259 56.6849 -36.82 54.6624 -45.2268 52.0686C-51.3732 38.6558 -52.4922 23.4926 -48.5887 9.41593C-47.1246 14.691 -43.1722 18.9078 -34.3839 17.6761C-28.2808 16.8207 -22.4919 9.36587 -15.4675 0.31988C-5.10295 -13.0274 7.95149 -29.8388 28.674 -34.0259C38.5358 -31.2342 47.8362 -25.9616 55.5915 -18.2063C57.3982 -16.3996 59.0702 -14.5089 60.6075 -12.5469Z" stroke="url(#paint6_linear_54_3686)" stroke-opacity="0.32" stroke-width="0.451882"/>
<path d="M51.6936 59.1883C43.801 61.2071 34.855 62.6835 25.2315 63.4757C31.1241 57.0404 35.7423 48.5212 42.0023 36.8276C48.0431 25.5436 55.1087 23.2898 61.1605 24.6987C61.4433 26.1008 61.6695 27.5121 61.8389 28.9289C56.7465 29.389 53.0857 34.4964 52.7091 47.5344C52.5909 51.6258 52.2385 55.5099 51.6936 59.1883Z" stroke="url(#paint7_linear_54_3686)" stroke-opacity="0.05" stroke-width="0.451882"/>
<path d="M51.6936 59.1883C43.801 61.2071 34.855 62.6835 25.2315 63.4757C31.1241 57.0404 35.7423 48.5212 42.0023 36.8276C48.0431 25.5436 55.1087 23.2898 61.1605 24.6987C61.4433 26.1008 61.6695 27.5121 61.8389 28.9289C56.7465 29.389 53.0857 34.4964 52.7091 47.5344C52.5909 51.6258 52.2385 55.5099 51.6936 59.1883Z" stroke="url(#paint8_linear_54_3686)" stroke-opacity="0.32" stroke-width="0.451882"/>
</g>
<rect width="256" height="256" rx="58" fill="url(#paint9_linear_54_3686)" fill-opacity="0.5" style="mix-blend-mode:overlay"/>
<rect x="0.25" y="0.25" width="255.5" height="255.5" rx="57.75" stroke="url(#paint10_linear_54_3686)" stroke-opacity="0.5" stroke-width="0.5" style="mix-blend-mode:overlay"/>
<rect width="256" height="256" rx="58" fill="url(#paint11_linear_54_3686)" fill-opacity="0.04" style="mix-blend-mode:screen"/>
<rect width="256" height="256" rx="58" fill="url(#paint12_linear_54_3686)" fill-opacity="0.12" style="mix-blend-mode:overlay"/>
<g style="mix-blend-mode:overlay" filter="url(#filter1_f_54_3686)">
<path d="M405.092 -304.088L439.033 -270.147L215.588 -46.7015L-5.02964 139.975L181.647 -80.6426L405.092 -304.088Z" fill="#4A3AFF"/>
</g>
<g style="mix-blend-mode:overlay" filter="url(#filter2_f_54_3686)">
<path d="M411.457 -120.948L445.398 -87.0066L221.952 136.439L1.33462 323.115L188.011 102.498L411.457 -120.948Z" fill="#4A3AFF"/>
</g>
<path d="M29.152 12.9785C37.7101 13.1009 44.61 20.0771 44.61 28.6654C44.61 34.0757 41.8707 38.8468 37.7038 41.6655C37.319 41.9279 36.9232 42.1711 36.5146 42.3969C37.3302 41.8722 37.8723 40.9612 37.885 39.9215C37.885 39.9215 37.885 51.0726 37.885 39.869C37.885 32.7076 18.2994 30.939 13.373 30.6024C18.3238 30.6024 37.7038 34.4396 37.885 21.9404C37.885 16.9897 33.9947 13.1009 29.152 12.9785Z" fill="url(#paint13_linear_54_3686)"/>
</g>
<rect x="0.225941" y="0.225941" width="57.389" height="57.389" rx="12.8786" stroke="url(#paint14_linear_54_3686)" stroke-opacity="0.16" stroke-width="0.451882"/>
<rect x="0.225941" y="0.225941" width="57.389" height="57.389" rx="12.8786" stroke="url(#paint15_linear_54_3686)" stroke-opacity="0.16" stroke-width="0.451882"/>
</g>
<defs>
<filter id="filter0_iii_54_3686" x="0" y="-7.23011" width="57.8408" height="65.5228" filterUnits="userSpaceOnUse" color-interpolation-filters="sRGB">
<feFlood flood-opacity="0" result="BackgroundImageFix"/>
<feBlend mode="normal" in="SourceGraphic" in2="BackgroundImageFix" result="shape"/>
<feColorMatrix in="SourceAlpha" type="matrix" values="0 0 0 0 0 0 0 0 0 0 0 0 0 0 0 0 0 0 127 0" result="hardAlpha"/>
<feOffset dy="-4.9707"/>
<feGaussianBlur stdDeviation="4.51882"/>
<feComposite in2="hardAlpha" operator="arithmetic" k2="-1" k3="1"/>
<feColorMatrix type="matrix" values="0 0 0 0 1 0 0 0 0 0.372549 0 0 0 0 0.0156863 0 0 0 0.04 0"/>
<feBlend mode="screen" in2="shape" result="effect1_innerShadow_54_3686"/>
<feColorMatrix in="SourceAlpha" type="matrix" values="0 0 0 0 0 0 0 0 0 0 0 0 0 0 0 0 0 0 127 0" result="hardAlpha"/>
<feOffset dy="-7.23011"/>
<feGaussianBlur stdDeviation="9.03764"/>
<feComposite in2="hardAlpha" operator="arithmetic" k2="-1" k3="1"/>
<feColorMatrix type="matrix" values="0 0 0 0 1 0 0 0 0 0.372549 0 0 0 0 0.0156863 0 0 0 0.06 0"/>
<feBlend mode="screen" in2="effect1_innerShadow_54_3686" result="effect2_innerShadow_54_3686"/>
<feColorMatrix in="SourceAlpha" type="matrix" values="0 0 0 0 0 0 0 0 0 0 0 0 0 0 0 0 0 0 127 0" result="hardAlpha"/>
<feOffset dy="0.451882"/>
<feGaussianBlur stdDeviation="0.225941"/>
<feComposite in2="hardAlpha" operator="arithmetic" k2="-1" k3="1"/>
<feColorMatrix type="matrix" values="0 0 0 0 1 0 0 0 0 1 0 0 0 0 1 0 0 0 0.1 0"/>
<feBlend mode="normal" in2="effect2_innerShadow_54_3686" result="effect3_innerShadow_54_3686"/>
</filter>
<filter id="filter1_f_54_3686" x="-45.0298" y="-344.088" width="524.063" height="524.063" filterUnits="userSpaceOnUse" color-interpolation-filters="sRGB">
<feFlood flood-opacity="0" result="BackgroundImageFix"/>
<feBlend mode="normal" in="SourceGraphic" in2="BackgroundImageFix" result="shape"/>
<feGaussianBlur stdDeviation="20" result="effect1_foregroundBlur_54_3686"/>
</filter>
<filter id="filter2_f_54_3686" x="-38.6655" y="-160.948" width="524.063" height="524.063" filterUnits="userSpaceOnUse" color-interpolation-filters="sRGB">
<feFlood flood-opacity="0" result="BackgroundImageFix"/>
<feBlend mode="normal" in="SourceGraphic" in2="BackgroundImageFix" result="shape"/>
<feGaussianBlur stdDeviation="20" result="effect1_foregroundBlur_54_3686"/>
</filter>
<linearGradient id="paint0_linear_54_3686" x1="28.9205" y1="0" x2="28.9205" y2="57.6721" gradientUnits="userSpaceOnUse">
<stop stop-color="#110800"/>
<stop offset="1" stop-color="#04002D"/>
</linearGradient>
<radialGradient id="paint1_radial_54_3686" cx="0" cy="0" r="1" gradientUnits="userSpaceOnUse" gradientTransform="translate(28.9204) rotate(90) scale(49.82)">
<stop stop-color="#4A3AFF"/>
<stop offset="1" stop-color="#4A3AFF"/>
</radialGradient>
<radialGradient id="paint2_radial_54_3686" cx="0" cy="0" r="1" gradientUnits="userSpaceOnUse" gradientTransform="translate(89.4724 28.0162) rotate(90) scale(101.673 162.678)">
<stop offset="0.854167" stop-color="#D9D9D9"/>
<stop offset="1" stop-color="#D9D9D9" stop-opacity="0"/>
</radialGradient>
<linearGradient id="paint3_linear_54_3686" x1="2.71105" y1="30.9535" x2="14.6859" y2="1.3552" gradientUnits="userSpaceOnUse">
<stop stop-color="white" stop-opacity="0"/>
<stop offset="1" stop-color="white"/>
</linearGradient>
<linearGradient id="paint4_linear_54_3686" x1="53.4349" y1="27.5648" x2="33.5781" y2="61.9546" gradientUnits="userSpaceOnUse">
<stop stop-color="white" stop-opacity="0"/>
<stop offset="1" stop-color="white"/>
</linearGradient>
<linearGradient id="paint5_linear_54_3686" x1="65.1075" y1="28.6457" x2="27.7545" y2="65.9987" gradientUnits="userSpaceOnUse">
<stop stop-color="white" stop-opacity="0.29"/>
<stop offset="1" stop-color="white"/>
</linearGradient>
<linearGradient id="paint6_linear_54_3686" x1="-2.93716" y1="71.9004" x2="-25.6442" y2="94.6074" gradientUnits="userSpaceOnUse">
<stop stop-color="#FFB45C" stop-opacity="0"/>
<stop offset="0.03125" stop-color="#FF9B26"/>
<stop offset="1" stop-color="#FFCC90" stop-opacity="0"/>
</linearGradient>
<linearGradient id="paint7_linear_54_3686" x1="65.1075" y1="28.6457" x2="27.7545" y2="65.9987" gradientUnits="userSpaceOnUse">
<stop stop-color="white" stop-opacity="0.29"/>
<stop offset="1" stop-color="white"/>
</linearGradient>
<linearGradient id="paint8_linear_54_3686" x1="-2.93716" y1="71.9004" x2="-25.6442" y2="94.6074" gradientUnits="userSpaceOnUse">
<stop stop-color="#FFB45C" stop-opacity="0"/>
<stop offset="0.03125" stop-color="#FF9B26"/>
<stop offset="1" stop-color="#FFCC90" stop-opacity="0"/>
</linearGradient>
<linearGradient id="paint9_linear_54_3686" x1="128" y1="0" x2="128" y2="256" gradientUnits="userSpaceOnUse">
<stop stop-color="#DC1FFF"/>
<stop offset="1" stop-opacity="0.54"/>
</linearGradient>
<linearGradient id="paint10_linear_54_3686" x1="128" y1="0" x2="128" y2="256" gradientUnits="userSpaceOnUse">
<stop stop-color="#DC1FFF"/>
<stop offset="1" stop-opacity="0.54"/>
</linearGradient>
<linearGradient id="paint11_linear_54_3686" x1="128" y1="0" x2="128" y2="256" gradientUnits="userSpaceOnUse">
<stop stop-color="white"/>
<stop offset="1" stop-color="white" stop-opacity="0"/>
</linearGradient>
<linearGradient id="paint12_linear_54_3686" x1="128" y1="0" x2="128" y2="256" gradientUnits="userSpaceOnUse">
<stop stop-color="white"/>
<stop offset="1" stop-color="white" stop-opacity="0"/>
</linearGradient>
<linearGradient id="paint13_linear_54_3686" x1="31.7927" y1="27.6877" x2="53.7245" y2="27.6877" gradientUnits="userSpaceOnUse">
<stop stop-color="#4A3AFF"/>
<stop offset="0.96" stop-color="white"/>
</linearGradient>
<linearGradient id="paint14_linear_54_3686" x1="-2.47377" y1="-2.4738" x2="25.5557" y2="25.5557" gradientUnits="userSpaceOnUse">
<stop stop-color="#4A3AFF"/>
<stop offset="1" stop-color="#DC1FFF"/>
</linearGradient>
<linearGradient id="paint15_linear_54_3686" x1="57.8409" y1="57.8409" x2="10.9582" y2="10.9581" gradientUnits="userSpaceOnUse">
<stop stop-color="#DC1FFF"/>
<stop offset="1" stop-color="#4A3AFF"/>
</linearGradient>
<clipPath id="clip0_54_3686">
<rect width="57.8409" height="57.8409" rx="13.1046" fill="white"/>
</clipPath>
<clipPath id="clip1_54_3686">
<rect width="57.8409" height="57.8409" fill="white"/>
</clipPath>
</defs>
</svg>
