<svg width="147" height="40" viewBox="0 0 147 40" fill="none" xmlns="http://www.w3.org/2000/svg">
<g clip-path="url(#clip0_10_511)">
<path d="M142.45 38.3809C142.093 38.399 141.733 38.4111 141.37 38.4172C141.431 38.4192 141.491 38.4192 141.552 38.4192C141.854 38.4192 142.153 38.4071 142.45 38.3809Z" fill="black"/>
<path d="M31.8291 38.6189C31.6435 38.7218 31.4538 38.8227 31.2642 38.9216C31.4599 38.8348 31.6516 38.7359 31.8291 38.6189Z" fill="black"/>
<path d="M31.8291 38.6189C31.6435 38.7218 31.4538 38.8227 31.2642 38.9216C31.4599 38.8348 31.6516 38.7359 31.8291 38.6189Z" fill="black"/>
<path d="M49.5693 30.0331V12.684H53.9399V15.9871C54.2285 14.7422 54.8177 13.7918 55.7075 13.134C56.5974 12.4782 57.798 12.1937 59.3113 12.2824V16.5198H58.6777C57.3884 16.5198 56.2967 16.9315 55.4089 17.7547C54.519 18.578 54.0751 19.712 54.0751 21.1568V30.0311H49.5714L49.5693 30.0331Z" fill="black"/>
<path d="M67.8852 30.4669C66.3053 30.4669 64.8666 30.0613 63.5651 29.2502C62.2636 28.439 61.2305 27.3494 60.4617 25.9813C59.6929 24.6132 59.3115 23.0959 59.3115 21.4271C59.3115 20.1821 59.5335 19.0078 59.9794 17.9081C60.4233 16.8063 61.0347 15.8398 61.8136 15.0064C62.5925 14.1731 63.4985 13.5173 64.5336 13.0391C65.5667 12.5609 66.6846 12.3228 67.8872 12.3228C69.3986 12.3228 70.579 12.6073 71.4245 13.1743C72.2699 13.7413 72.9257 14.4919 73.3918 15.4261V12.69H77.8613V30.0371H73.4907V27.2021C73.0246 28.1807 72.3607 28.9697 71.5052 29.571C70.6496 30.1723 69.4409 30.471 67.8852 30.471V30.4669ZM68.6177 26.397C69.6185 26.397 70.4801 26.169 71.2025 25.713C71.9249 25.2569 72.4878 24.6516 72.8874 23.8949C73.2869 23.1382 73.4887 22.315 73.4887 21.4251C73.4887 20.5353 73.2889 19.6797 72.8874 18.923C72.4878 18.1663 71.9249 17.5549 71.2025 17.0888C70.4801 16.6227 69.6185 16.3886 68.6177 16.3886C67.6168 16.3886 66.8218 16.6167 66.0994 17.0727C65.3771 17.5287 64.8141 18.1361 64.4146 18.8907C64.015 19.6474 63.8133 20.4808 63.8133 21.3928C63.8133 22.3049 64.013 23.0777 64.4146 23.8445C64.8141 24.6112 65.3771 25.2287 66.0994 25.6968C66.8218 26.1629 67.6612 26.397 68.6177 26.397Z" fill="black"/>
<path d="M81.7959 30.0332V16.5219H79.3604V12.6861H81.7959V11.5178C81.7959 9.76026 82.3185 8.34779 83.3637 7.28037C84.4089 6.21294 85.8093 5.67822 87.5668 5.67822H89.4353V9.51408H88.267C86.9554 9.51408 86.2996 10.2042 86.2996 11.5823V12.6841H89.8368V16.5199H86.2996V30.0312H81.7959V30.0332Z" fill="black"/>
<path d="M98.8101 30.4671C97.0304 30.4671 95.4626 30.0554 94.1066 29.2322C92.7506 28.4089 91.6994 27.3132 90.9548 25.9451C90.2102 24.5771 89.8369 23.0597 89.8369 21.3909C89.8369 19.7222 90.2264 18.1947 91.0052 16.8044C91.7841 15.4142 92.8455 14.3084 94.1914 13.4851C95.5372 12.6619 97.0768 12.2502 98.8121 12.2502C100.547 12.2502 102.075 12.6619 103.399 13.4851C104.722 14.3084 105.755 15.4142 106.502 16.8044C107.247 18.1947 107.62 19.7242 107.62 21.3909C107.62 21.6351 107.608 21.8914 107.586 22.1577C107.563 22.4241 107.529 22.7025 107.485 22.9911H94.5081C94.7523 24.0141 95.2467 24.8474 95.9933 25.4931C96.7378 26.1388 97.6781 26.4597 98.8121 26.4597C99.7908 26.4597 100.64 26.2377 101.365 25.7918C102.087 25.3479 102.65 24.7909 103.05 24.1231L106.552 26.7583C105.862 27.8479 104.829 28.7378 103.449 29.4279C102.069 30.118 100.523 30.461 98.8121 30.461L98.8101 30.4671ZM98.7435 16.1204C97.6761 16.1204 96.7641 16.4433 96.0074 17.0869C95.2507 17.7326 94.7503 18.5781 94.5061 19.6233H103.08C102.836 18.6669 102.329 17.8436 101.562 17.1555C100.796 16.4655 99.8553 16.1204 98.7435 16.1204Z" fill="black"/>
<path d="M117.659 30.4671C115.879 30.4671 114.311 30.0554 112.955 29.2322C111.599 28.4089 110.548 27.3132 109.803 25.9451C109.059 24.5771 108.686 23.0597 108.686 21.3909C108.686 19.7222 109.075 18.1947 109.854 16.8044C110.633 15.4142 111.694 14.3084 113.04 13.4851C114.386 12.6619 115.925 12.2502 117.661 12.2502C119.396 12.2502 120.924 12.6619 122.247 13.4851C123.571 14.3084 124.604 15.4142 125.351 16.8044C126.095 18.1947 126.469 19.7242 126.469 21.3909C126.469 21.6351 126.456 21.8914 126.434 22.1577C126.412 22.4241 126.378 22.7025 126.333 22.9911H113.355C113.599 24.0141 114.093 24.8474 114.84 25.4931C115.584 26.1388 116.525 26.4597 117.659 26.4597C118.637 26.4597 119.489 26.2377 120.211 25.7918C120.934 25.3479 121.497 24.7909 121.896 24.1231L125.399 26.7583C124.709 27.8479 123.676 28.7378 122.296 29.4279C120.916 30.118 119.37 30.461 117.659 30.461V30.4671ZM117.592 16.1204C116.525 16.1204 115.613 16.4433 114.856 17.0869C114.099 17.7326 113.599 18.5781 113.355 19.6233H121.928C121.684 18.6669 121.178 17.8436 120.411 17.1555C119.644 16.4655 118.704 16.1204 117.592 16.1204Z" fill="black"/>
<path fill-rule="evenodd" clip-rule="evenodd" d="M141.58 36.706H146.083L146.087 12.69H141.65V15.4927C141.182 14.5363 140.52 13.7695 139.665 13.1904C138.807 12.6113 137.625 12.3228 136.111 12.3228C134.909 12.3228 133.791 12.5609 132.758 13.0391C131.723 13.5173 130.817 14.1731 130.038 15.0064C129.259 15.8398 128.647 16.8063 128.204 17.9081C127.758 19.0078 127.536 20.1821 127.536 21.4271C127.536 23.0959 127.917 24.6132 128.686 25.9813C129.455 27.3494 130.488 28.439 131.789 29.2502C133.091 30.0613 134.529 30.4669 136.109 30.4669C137.598 30.4669 138.767 30.1945 139.612 29.6497C140.456 29.1049 141.114 28.3765 141.58 27.4644V36.706ZM136.842 26.397C137.843 26.397 138.704 26.169 139.427 25.713C140.149 25.2569 140.712 24.6516 141.111 23.8949C141.511 23.1382 141.713 22.315 141.713 21.4251C141.713 20.5353 141.513 19.6797 141.111 18.923C140.712 18.1663 140.149 17.5549 139.427 17.0888C138.704 16.6227 137.843 16.3886 136.842 16.3886C135.841 16.3886 135.046 16.6167 134.324 17.0727C133.601 17.5287 133.038 18.1361 132.639 18.8907C132.239 19.6474 132.037 20.4808 132.037 21.3928C132.037 22.3049 132.237 23.0777 132.639 23.8445C133.04 24.6112 133.601 25.2287 134.324 25.6968C135.046 26.1629 135.885 26.397 136.842 26.397Z" fill="black"/>
<path d="M29.5531 37.3376C29.3634 37.4426 29.1717 37.5455 28.978 37.6444C29.1778 37.5576 29.3715 37.4567 29.5531 37.3376Z" fill="black"/>
<path d="M20.2084 0C26.3546 0.155372 31.2922 5.18981 31.2922 11.3744C31.2922 19.0898 26.1973 22.7508 19.9138 22.7508C26.1973 22.7508 31.2922 27.8458 31.2922 34.1293V34.1959C31.2761 35.5155 30.588 36.6717 29.5529 37.3376C29.3632 37.4425 29.1715 37.5454 28.9778 37.6443C26.2598 39.0366 23.1786 39.8235 19.9138 39.8235C15.7833 39.8235 11.9475 38.5665 8.7674 36.4114C3.47669 32.8318 0 26.7764 0 19.9098C0 9.00953 8.75731 0.155372 19.6192 0" fill="white"/>
<path d="M20.2082 0C31.0701 0.155372 39.8274 9.00953 39.8274 19.9098C39.8274 26.7764 36.3507 32.8318 31.0621 36.4094C30.5737 36.7423 30.0713 37.0511 29.5527 37.3376C30.5879 36.6717 31.2759 35.5155 31.2921 34.1959C31.2921 34.1959 31.2921 48.3488 31.2921 34.1293C31.2921 25.04 6.43419 22.7954 0.181641 22.3682C6.46511 22.3682 31.0621 27.2383 31.2921 11.3744C31.2921 5.09094 26.3545 0.155372 20.2082 0Z" fill="url(#paint0_linear_10_511)"/>
<path d="M29.5531 37.3376C29.3634 37.4426 29.1717 37.5455 28.978 37.6444C29.1778 37.5576 29.3715 37.4567 29.5531 37.3376Z" fill="black"/>
</g>
<defs>
<linearGradient id="paint0_linear_10_511" x1="23.5597" y1="18.6688" x2="51.3955" y2="18.6688" gradientUnits="userSpaceOnUse">
<stop stop-color="#4A3AFF"/>
<stop offset="0.96" stop-color="white"/>
</linearGradient>
<clipPath id="clip0_10_511">
<rect width="146.084" height="39.8235" fill="white"/>
</clipPath>
</defs>
</svg>
